<mxfile host="app.diagrams.net" modified="2024-06-28T23:43:35.830Z" agent="Mozilla/5.0 (Windows NT 10.0; Win64; x64) AppleWebKit/537.36 (KHTML, like Gecko) Chrome/126.0.0.0 Safari/537.36" version="24.6.4" etag="ICPea3tWgWLMXSGxYU-r" type="github">
  <diagram name="PÃ¡gina-1" id="gAXYXqP0tnJTvE2Ub37-">
    <mxGraphModel>
      <root>
        <mxCell id="0" />
        <mxCell id="1" parent="0" />
      </root>
    </mxGraphModel>
  </diagram>
</mxfile>
